<svg width="697" height="657" viewBox="0 0 697 657" fill="none" xmlns="http://www.w3.org/2000/svg">
<path fill-rule="evenodd" clip-rule="evenodd" d="M328.082 136.996C388.451 74.282 497.452 185.743 587.759 313.066C678.066 440.39 739.638 500.891 660.764 582.829C581.89 664.767 413.536 697.347 328.082 582.829C242.629 468.311 267.713 199.71 328.082 136.996Z" fill="url(#paint0_linear_601_2)"/>
<path fill-rule="evenodd" clip-rule="evenodd" d="M14.8852 304.531C-36.9879 254.698 55.2052 164.722 160.519 90.1756C265.833 15.6297 315.877 -35.1968 383.651 29.9117C451.425 95.0203 478.373 233.992 383.651 304.531C288.929 375.071 66.7582 354.364 14.8852 304.531Z" fill="#F4F4FC"/>
<path d="M344 45.0875L364.087 25L384.175 45.0875L404.262 25L424.35 45.0875L444.437 25" stroke="#D3629D" stroke-width="4"/>
<path d="M344 63.0875L364.087 43L384.175 63.0875L404.262 43L424.35 63.0875L444.437 43" stroke="#D3629D" stroke-width="4"/>
<path d="M344 81.0875L364.087 61L384.175 81.0875L404.262 61L424.35 81.0875L444.437 61" stroke="#D3629D" stroke-width="4"/>
<path d="M344 99.0875L364.087 79L384.175 99.0875L404.262 79L424.35 99.0875L444.437 79" stroke="#D3629D" stroke-width="4"/>
<path fill-rule="evenodd" clip-rule="evenodd" d="M491 580C492.657 580 494 578.657 494 577C494 575.343 492.657 574 491 574C489.343 574 488 575.343 488 577C488 578.657 489.343 580 491 580ZM491 602C492.657 602 494 600.657 494 599C494 597.343 492.657 596 491 596C489.343 596 488 597.343 488 599C488 600.657 489.343 602 491 602ZM513 602C514.657 602 516 600.657 516 599C516 597.343 514.657 596 513 596C511.343 596 510 597.343 510 599C510 600.657 511.343 602 513 602ZM538 599C538 600.657 536.657 602 535 602C533.343 602 532 600.657 532 599C532 597.343 533.343 596 535 596C536.657 596 538 597.343 538 599ZM557 602C558.657 602 560 600.657 560 599C560 597.343 558.657 596 557 596C555.343 596 554 597.343 554 599C554 600.657 555.343 602 557 602ZM582 599C582 600.657 580.657 602 579 602C577.343 602 576 600.657 576 599C576 597.343 577.343 596 579 596C580.657 596 582 597.343 582 599ZM601 602C602.657 602 604 600.657 604 599C604 597.343 602.657 596 601 596C599.343 596 598 597.343 598 599C598 600.657 599.343 602 601 602ZM626 599C626 600.657 624.657 602 623 602C621.343 602 620 600.657 620 599C620 597.343 621.343 596 623 596C624.657 596 626 597.343 626 599ZM645 602C646.657 602 648 600.657 648 599C648 597.343 646.657 596 645 596C643.343 596 642 597.343 642 599C642 600.657 643.343 602 645 602ZM670 599C670 600.657 668.657 602 667 602C665.343 602 664 600.657 664 599C664 597.343 665.343 596 667 596C668.657 596 670 597.343 670 599ZM494 621C494 622.657 492.657 624 491 624C489.343 624 488 622.657 488 621C488 619.343 489.343 618 491 618C492.657 618 494 619.343 494 621ZM516 621C516 622.657 514.657 624 513 624C511.343 624 510 622.657 510 621C510 619.343 511.343 618 513 618C514.657 618 516 619.343 516 621ZM535 624C536.657 624 538 622.657 538 621C538 619.343 536.657 618 535 618C533.343 618 532 619.343 532 621C532 622.657 533.343 624 535 624ZM560 621C560 622.657 558.657 624 557 624C555.343 624 554 622.657 554 621C554 619.343 555.343 618 557 618C558.657 618 560 619.343 560 621ZM579 624C580.657 624 582 622.657 582 621C582 619.343 580.657 618 579 618C577.343 618 576 619.343 576 621C576 622.657 577.343 624 579 624ZM604 621C604 622.657 602.657 624 601 624C599.343 624 598 622.657 598 621C598 619.343 599.343 618 601 618C602.657 618 604 619.343 604 621ZM623 624C624.657 624 626 622.657 626 621C626 619.343 624.657 618 623 618C621.343 618 620 619.343 620 621C620 622.657 621.343 624 623 624ZM648 621C648 622.657 646.657 624 645 624C643.343 624 642 622.657 642 621C642 619.343 643.343 618 645 618C646.657 618 648 619.343 648 621ZM667 624C668.657 624 670 622.657 670 621C670 619.343 668.657 618 667 618C665.343 618 664 619.343 664 621C664 622.657 665.343 624 667 624ZM513 580C514.657 580 516 578.657 516 577C516 575.343 514.657 574 513 574C511.343 574 510 575.343 510 577C510 578.657 511.343 580 513 580ZM494 643C494 644.657 492.657 646 491 646C489.343 646 488 644.657 488 643C488 641.343 489.343 640 491 640C492.657 640 494 641.343 494 643ZM516 643C516 644.657 514.657 646 513 646C511.343 646 510 644.657 510 643C510 641.343 511.343 640 513 640C514.657 640 516 641.343 516 643ZM535 646C536.657 646 538 644.657 538 643C538 641.343 536.657 640 535 640C533.343 640 532 641.343 532 643C532 644.657 533.343 646 535 646ZM560 643C560 644.657 558.657 646 557 646C555.343 646 554 644.657 554 643C554 641.343 555.343 640 557 640C558.657 640 560 641.343 560 643ZM579 646C580.657 646 582 644.657 582 643C582 641.343 580.657 640 579 640C577.343 640 576 641.343 576 643C576 644.657 577.343 646 579 646ZM604 643C604 644.657 602.657 646 601 646C599.343 646 598 644.657 598 643C598 641.343 599.343 640 601 640C602.657 640 604 641.343 604 643ZM623 646C624.657 646 626 644.657 626 643C626 641.343 624.657 640 623 640C621.343 640 620 641.343 620 643C620 644.657 621.343 646 623 646ZM648 643C648 644.657 646.657 646 645 646C643.343 646 642 644.657 642 643C642 641.343 643.343 640 645 640C646.657 640 648 641.343 648 643ZM667 646C668.657 646 670 644.657 670 643C670 641.343 668.657 640 667 640C665.343 640 664 641.343 664 643C664 644.657 665.343 646 667 646ZM535 580C536.657 580 538 578.657 538 577C538 575.343 536.657 574 535 574C533.343 574 532 575.343 532 577C532 578.657 533.343 580 535 580ZM560 577C560 578.657 558.657 580 557 580C555.343 580 554 578.657 554 577C554 575.343 555.343 574 557 574C558.657 574 560 575.343 560 577ZM579 580C580.657 580 582 578.657 582 577C582 575.343 580.657 574 579 574C577.343 574 576 575.343 576 577C576 578.657 577.343 580 579 580ZM604 577C604 578.657 602.657 580 601 580C599.343 580 598 578.657 598 577C598 575.343 599.343 574 601 574C602.657 574 604 575.343 604 577ZM623 580C624.657 580 626 578.657 626 577C626 575.343 624.657 574 623 574C621.343 574 620 575.343 620 577C620 578.657 621.343 580 623 580ZM648 577C648 578.657 646.657 580 645 580C643.343 580 642 578.657 642 577C642 575.343 643.343 574 645 574C646.657 574 648 575.343 648 577ZM667 580C668.657 580 670 578.657 670 577C670 575.343 668.657 574 667 574C665.343 574 664 575.343 664 577C664 578.657 665.343 580 667 580Z" fill="#CF6BCB"/>
<defs>
<linearGradient id="paint0_linear_601_2" x1="770.42" y1="494.452" x2="378.777" y2="770.146" gradientUnits="userSpaceOnUse">
<stop stop-color="#9975D0"/>
<stop offset="1" stop-color="#4A3FDB"/>
</linearGradient>
</defs>
</svg>
